#!OML:ASF E:\Mandelcareful walks\Project 1\Capture day 1\Session 1\Subject1.ASF
:FULLY-SPECIFIED
:DEGREES
1124
root -11.2367 15.717 -1.66264 15.5746 210.006 -8.83812
lowerback 35.6435 -1.23012 2.96433
upperback 7.59816 -1.93128 4.81008
thorax -9.42933 -1.77736 4.43048
lowerneck -26.2923 -9.82538 -11.7102
upperneck 20.0067 -14.8341 18.1703
head 13.5905 -5.38822 6.00728
rclavicle -1.04958e-013 -2.54444e-014
rhumerus -15.0209 -4.96684 -68.7939
rradius 42.2447
rwrist -21.9011
rhand -19.1647 -25.8956
rfingers 7.12502
rthumb 7.14614 -55.7549
lclavicle -1.04958e-013 -2.54444e-014
lhumerus -16.4144 -25.5775 82.4141
lradius 64.0455
lwrist 24.7466
lhand -28.8527 -15.3718
lfingers 7.12502
lthumb -2.20941 14.5965
rfemur -47.4341 -22.1636 28.4574
rtibia 51.8705
rfoot -25.0316 -18.639
rtoes 26.6113
lfemur -28.1603 20.5202 -26.1655
ltibia 75.1829
lfoot -17.2664 -1.46577
ltoes -11.5447
1125
root -11.2882 15.7215 -1.70186 15.3967 208.986 -8.84594
lowerback 35.7882 -1.18075 3.2331
upperback 7.5513 -1.80338 4.67383
thorax -9.41743 -1.73327 4.12022
lowerneck -26.3388 -9.97052 -11.5327
upperneck 19.8125 -15.084 18.1916
head 13.5543 -5.48321 5.91582
rclavicle 3.65764e-014 4.29375e-014
rhumerus -15.07 -5.67609 -68.8681
rradius 42.1666
rwrist -21.7237
rhand -18.931 -25.8154
rfingers 7.12502
rthumb 7.37174 -55.6669
lclavicle 3.65764e-014 4.29375e-014
lhumerus -15.8973 -26.7506 81.9197
lradius 64.0846
lwrist 25.6591
lhand -28.8675 -15.4196
lfingers 7.12502
lthumb -2.22378 14.5486
rfemur -46.8795 -21.4187 27.9894
rtibia 51.7823
rfoot -25.1695 -18.3672
rtoes 26.5649
lfemur -29.4326 19.943 -25.9449
ltibia 75.3334
lfoot -17.4246 -1.02844
ltoes -11.2646
1126
root -11.3426 15.7237 -1.74106 15.0683 207.928 -8.76678
lowerback 36.0487 -1.21479 3.13859
upperback 7.4643 -1.87813 4.82746
thorax -9.60389 -1.7798 4.38204
lowerneck -26.1547 -9.85658 -11.9318
upperneck 19.8736 -14.8034 18.2305
head 13.5286 -5.39827 6.07276
rclavicle -2.22639e-014 -3.97569e-014
rhumerus -15.0894 -5.23283 -68.7366
rradius 42.1819
rwrist -21.6799
rhand -18.7822 -25.8676
rfingers 7.12502
rthumb 7.51538 -55.7141
lclavicle -2.22639e-014 -3.97569e-014
lhumerus -16.0327 -26.0781 82.2154
lradius 64.0445
lwrist 25.506
lhand -28.6267 -15.5571
lfingers 7.12502
lthumb -1.99119 14.4133
rfemur -46.5995 -22.3817 28.2006
rtibia 51.7322
rfoot -24.658 -16.6794
rtoes 25.6954
lfemur -30.5033 19.4333 -25.6657
ltibia 75.1202
lfoot -17.6302 -0.489147
ltoes -11.9393
1127
root -11.3982 15.7294 -1.78048 14.687 206.868 -8.58911
lowerback 36.2553 -1.26584 3.00398
upperback 7.50912 -2.02916 5.07641
thorax -9.61606 -1.87802 4.79141
lowerneck -26.4335 -9.73612 -12.2504
upperneck 20.0831 -14.4519 18.0922
head 13.611 -5.26279 6.16094
rclavicle -9.85972e-014 -4.77083e-015
rhumerus -14.7646 -4.43962 -68.5855
rradius 42.2064
rwrist -21.799
rhand -18.7901 -25.7866
rfingers 7.12502
rthumb 7.50773 -55.6334
lclavicle -9.85972e-014 -4.77083e-015
lhumerus -15.9682 -25.3641 82.3468
lradius 64.0598
lwrist 25.4835
lhand -28.5096 -15.667
lfingers 7.12502
lthumb -1.87813 14.3045
rfemur -46.0919 -22.4269 28.1183
rtibia 51.7206
rfoot -24.3988 -15.7297
rtoes 25.2717
lfemur -31.6119 18.8891 -25.2394
ltibia 74.6298
lfoot -17.7172 0.0802983
ltoes -13.3179
1128
root -11.4549 15.7349 -1.81685 14.2812 205.705 -8.35143
lowerback 36.4319 -1.20154 3.34991
upperback 7.57046 -1.87413 4.93879
thorax -9.61989 -1.82993 4.40616
lowerneck -26.5602 -9.75546 -11.7186
upperneck 20.0471 -14.6112 17.8667
head 13.5797 -5.31028 5.93371
rclavicle -5.08889e-014 5.24792e-014
rhumerus -14.9403 -4.8321 -68.735
rradius 42.3804
rwrist -21.9496
rhand -18.794 -25.8497
rfingers 7.12502
rthumb 7.50404 -55.6966
lclavicle -5.08889e-014 5.24792e-014
lhumerus -15.7172 -25.9624 82.0223
lradius 64.1905
lwrist 25.5714
lhand -28.6633 -15.6951
lfingers 7.12502
lthumb -2.0265 14.275
rfemur -45.5577 -22.209 28.0079
rtibia 51.7379
rfoot -24.2634 -14.8595
rtoes 24.8275
lfemur -32.752 18.3635 -24.681
ltibia 73.9044
lfoot -17.9701 0.447743
ltoes -14.0222
1129
root -11.5108 15.731 -1.84983 13.791 204.494 -7.9706
lowerback 36.658 -1.11691 3.94028
upperback 7.6287 -1.60661 4.69909
thorax -9.64554 -1.73231 3.7404
lowerneck -26.5683 -9.78641 -11.0568
upperneck 19.895 -14.8789 17.7555
head 13.4997 -5.39544 5.70289
rclavicle 2.06736e-014 -5.08889e-014
rhumerus -15.1587 -5.74488 -69.0578
rradius 42.4338
rwrist -21.7627
rhand -18.6237 -25.9522
rfingers 7.12502
rthumb 7.6684 -55.7932
lclavicle 2.06736e-014 -5.08889e-014
lhumerus -15.429 -26.8718 81.5987
lradius 64.2915
lwrist 25.7361
lhand -28.593 -15.733
lfingers 7.12502
lthumb -1.95863 14.2378
rfemur -44.9757 -21.7518 27.9716
rtibia 51.7959
rfoot -24.4307 -13.8479
rtoes 24.8014
lfemur -33.8394 17.921 -23.9438
ltibia 72.9399
lfoot -18.4625 0.670857
ltoes -14.2821
1130
root -11.5679 15.7174 -1.88348 13.4496 203.246 -7.587
lowerback 36.6821 -1.04759 4.42446
upperback 7.70009 -1.40024 4.52185
thorax -9.57587 -1.6593 3.214
lowerneck -26.7017 -9.8405 -10.5623
upperneck 19.8033 -15.0985 17.6291
head 13.4703 -5.46443 5.50842
rclavicle 1.11319e-014 5.40694e-014
rhumerus -15.3986 -5.71432 -69.2577
rradius 42.7858
rwrist -22.1906
rhand -18.7502 -26.1636
rfingers 7.12502
rthumb 7.54631 -56.009
lclavicle 1.11319e-014 5.40694e-014
lhumerus -15.2159 -27.6336 81.2576
lradius 64.4874
lwrist 26.4513
lhand -28.8183 -15.8128
lfingers 7.12502
lthumb -2.17627 14.1559
rfemur -44.5928 -21.2145 27.9789
rtibia 51.9527
rfoot -24.7114 -12.8115
rtoes 25.0319
lfemur -35.0245 17.5221 -23.2421
ltibia 71.7359
lfoot -18.8691 0.769779
ltoes -13.7575
1131
root -11.6259 15.7074 -1.92399 13.2121 201.943 -7.37525
lowerback 36.6647 -0.910622 4.76886
upperback 7.72861 -1.14337 4.33369
thorax -9.53861 -1.55309 2.72977
lowerneck -26.8672 -10.0914 -10.3441
upperneck 19.8347 -15.6027 17.7186
head 13.596 -5.64816 5.38553
rclavicle 1.43125e-014 3.02153e-014
rhumerus -16.0552 -5.25811 -69.2378
rradius 43.626
rwrist -23.5163
rhand -19.2754 -26.57
rfingers 7.12502
rthumb 7.03935 -56.4329
lclavicle 1.43125e-014 3.02153e-014
lhumerus -15.1148 -28.4136 81.1408
lradius 64.6785
lwrist 27.0579
lhand -29.6876 -16.002
lfingers 7.12502
lthumb -3.01578 13.9564
rfemur -44.2732 -20.6776 27.8141
rtibia 52.2191
rfoot -25.0777 -11.935
rtoes 25.3184
lfemur -36.0909 17.0004 -22.675
ltibia 70.3081
lfoot -19.1759 0.946514
ltoes -14.1188
1132
root -11.6829 15.699 -1.97122 12.9345 200.922 -7.33363
lowerback 36.7634 -0.862178 5.18817
upperback 7.70627 -0.949728 4.16898
thorax -9.5933 -1.47593 2.26295
lowerneck -26.6656 -10.2539 -10.2037
upperneck 19.4627 -15.8941 17.8659
head 13.4623 -5.77416 5.33965
rclavicle 1.90833e-014 -3.97569e-014
rhumerus -16.5088 -6.24131 -69.2902
rradius 43.8487
rwrist -23.4214
rhand -19.6342 -26.7559
rfingers 7.12502
rthumb 6.69297 -56.6302
lclavicle 1.90833e-014 -3.97569e-014
lhumerus -14.9535 -29.0281 81.2161
lradius 64.5343
lwrist 26.4105
lhand -29.4609 -15.8651
lfingers 7.12502
lthumb -2.79682 14.0963
rfemur -44.1148 -21.8639 27.9781
rtibia 52.5288
rfoot -25.1054 -9.96208
rtoes 25.3177
lfemur -36.9227 16.0447 -22.1458
ltibia 68.7104
lfoot -19.4634 1.26645
ltoes -15.072
1133
root -11.8012 15.6967 -1.97804 13.2807 201.26 -7.61369
lowerback 36.1018 -2.01527 6.79312
upperback 7.48263 -1.81274 3.96867
thorax -9.58798 -1.87148 1.53507
lowerneck -26.4131 -10.2367 -10.4312
upperneck 19.2433 -15.7492 17.8799
head 13.3203 -5.74897 5.41407
rclavicle 1.59028e-014 -1.00187e-013
rhumerus -16.4161 -6.77804 -69.3268
rradius 43.5958
rwrist -22.5943
rhand -19.5467 -26.8524
rfingers 7.12502
rthumb 6.77747 -56.724
lclavicle 1.59028e-014 -1.00187e-013
lhumerus -15.1561 -28.9351 81.4696
lradius 64.4208
lwrist 25.6253
lhand -27.2963 -15.3324
lfingers 7.12502
lthumb -0.70625 14.6462
rfemur -44.6215 -23.2605 27.7155
rtibia 52.892
rfoot -25.2382 -8.82162
rtoes 26.0567
lfemur -38.662 13.2093 -22.1595
ltibia 67.1063
lfoot -19.4692 2.09784
ltoes -15.4653
1134
root -11.8624 15.6987 -2.01746 12.8313 199.779 -7.34318
lowerback 36.4266 -2.15871 6.14366
upperback 7.3182 -2.20578 4.50426
thorax -9.88266 -2.07765 2.62921
lowerneck -26.2295 -9.87967 -11.5763
upperneck 19.6728 -14.8216 17.7735
head 13.376 -5.4388 5.80625
rclavicle 3.49861e-014 -2.8625e-014
rhumerus -15.9856 -4.02599 -68.9674
rradius 43.6819
rwrist -23.1771
rhand -19.368 -26.952
rfingers 7.12502
rthumb 6.9499 -56.8179
lclavicle 3.49861e-014 -2.8625e-014
lhumerus -16.2776 -27.0664 82.2503
lradius 64.5849
lwrist 25.2138
lhand -27.3364 -16.3571
lfingers 7.12502
lthumb -0.745002 13.6214
rfemur -44.0226 -22.2284 27.3057
rtibia 53.1441
rfoot -25.8029 -7.9117
rtoes 28.0359
lfemur -39.4804 12.7188 -21.3869
ltibia 65.448
lfoot -19.4603 1.96865
ltoes -15.7348
1135
root -11.9177 15.6896 -2.06257 12.4807 198.098 -7.109
lowerback 36.4784 -1.97306 5.65311
upperback 7.36272 -2.19953 4.70794
thorax -9.84747 -2.09429 3.10492
lowerneck -26.2203 -9.75772 -11.9432
upperneck 19.7525 -14.5305 17.8183
head 13.3884 -5.3362 5.95941
rclavicle -6.36111e-015 1.59028e-015
rhumerus -15.7892 -3.07575 -68.8912
rradius 43.8474
rwrist -23.3888
rhand -19.2568 -26.8472
rfingers 7.12502
rthumb 7.05724 -56.7095
lclavicle -6.36111e-015 1.59028e-015
lhumerus -16.694 -26.4912 82.4322
lradius 64.7086
lwrist 24.9373
lhand -27.349 -16.651
lfingers 7.12502
lthumb -0.757196 13.3274
rfemur -43.6001 -21.1956 26.9855
rtibia 53.3878
rfoot -26.0156 -6.9166
rtoes 29.26
lfemur -40.3039 12.3493 -20.6216
ltibia 63.8272
lfoot -19.4655 1.60871
ltoes -16.3729
1136
root -11.9748 15.6749 -2.11058 12.0871 196.351 -6.92457
lowerback 36.6487 -1.47787 5.08501
upperback 7.41509 -1.81602 4.98774
thorax -9.85547 -1.93957 3.55993
lowerneck -26.1228 -9.85498 -12.1322
upperneck 19.553 -14.5669 17.8377
head 13.3125 -5.37273 5.98363
rclavicle -1.74931e-014 -9.54166e-014
rhumerus -15.6272 -3.91687 -68.6718
rradius 43.722
rwrist -22.6301
rhand -19.2027 -26.814
rfingers 7.12502
rthumb 7.10949 -56.6746
lclavicle -1.74931e-014 -9.54166e-014
lhumerus -16.8407 -26.5147 82.9093
lradius 64.6972
lwrist 24.7644
lhand -27.4723 -16.582
lfingers 7.12502
lthumb -0.876256 13.3959
rfemur -43.0769 -20.0425 26.686
rtibia 53.5676
rfoot -25.6538 -6.71165
rtoes 27.4584
lfemur -40.8927 11.9142 -19.9218
ltibia 62.2302
lfoot -19.4037 1.30964
ltoes -17.8605
1137
root -12.0444 15.652 -2.15353 11.621 194.954 -6.82203
lowerback 36.7983 -1.47151 5.15755
upperback 7.50281 -1.85583 4.9148
thorax -9.80781 -1.9869 3.46529
lowerneck -25.8265 -9.84778 -12.3809
upperneck 19.056 -14.5817 18.3694
head 13.1436 -5.37851 6.221
rclavicle -4.77083e-015 6.36111e-015
rhumerus -15.3699 -4.5697 -68.8418
rradius 43.5301
rwrist -22.1253
rhand -19.1275 -26.7526
rfingers 7.12502
rthumb 7.18203 -56.6107
lclavicle -4.77083e-015 6.36111e-015
lhumerus -16.9074 -26.4267 82.9415
lradius 64.6292
lwrist 24.6317
lhand -27.2893 -16.5802
lfingers 7.12502
lthumb -0.699514 13.3984
rfemur -42.4263 -19.0437 26.3085
rtibia 53.7016
rfoot -24.9796 -7.37
rtoes 22.8701
lfemur -41.4488 11.0479 -19.3258
ltibia 60.7358
lfoot -19.2263 1.19853
ltoes -20.475
